<svg width="98" height="32" viewBox="0 0 98 32" fill="none" xmlns="http://www.w3.org/2000/svg">
<g clip-path="url(#clip0_6542_100438)">
<path d="M61.9584 15.034C61.8935 14.7844 61.8331 14.5341 61.7796 14.2834H69.4727C69.5935 14.2834 69.7032 14.2118 69.7521 14.1011L70.0223 13.4906C70.0781 13.3708 70.1316 13.2502 70.1825 13.1285L70.1844 13.1243C70.3453 12.7388 70.4775 12.3426 70.5601 11.9284C70.7367 11.0438 70.7355 10.1584 70.4091 9.31393C69.8526 7.87348 68.742 7.05201 67.2755 6.69792C66.4546 6.49964 65.6156 6.48279 64.7721 6.56433C63.6168 6.6761 62.586 7.06808 61.7119 7.84362C60.602 8.82855 60.0765 10.0906 59.9924 11.5479C59.9619 12.0788 59.9963 12.6037 60.0628 13.125H54.0127C54.0624 13.0753 54.114 13.0236 54.1682 12.9696C54.5283 12.609 54.8803 12.2408 55.1937 11.8369C55.718 11.1617 56.1465 10.439 56.3112 9.58533C56.4958 8.62911 56.2653 7.82295 55.4643 7.21622C54.8436 6.74615 54.1182 6.59878 53.3718 6.53945C52.5443 6.47361 51.7157 6.52988 50.8978 6.65696C49.5789 6.86176 48.3142 7.25757 47.1007 7.81798C45.5811 8.51925 44.2117 9.45097 42.9329 10.5224C42.6623 10.749 42.4032 10.9894 42.1315 11.2302C42.2121 11.2807 42.2767 11.2616 42.3375 11.2616C42.8725 11.2635 43.4076 11.2558 43.9423 11.2666C44.1192 11.27 44.253 11.2225 44.386 11.1046C45.1569 10.4217 46.0069 9.85022 46.9138 9.36637C48.3967 8.57514 49.9592 8.02086 51.64 7.85051C52.3375 7.7797 53.04 7.76017 53.7268 7.94813C54.0681 8.04153 54.3853 8.18852 54.5997 8.49131C54.9598 8.99928 54.8738 9.52753 54.654 10.0523C54.362 10.7498 53.9091 11.3393 53.3817 11.8733C52.9808 12.2794 52.5596 12.7028 52.1396 13.1254H34.6569C34.762 12.8632 34.8572 12.5956 34.9401 12.3219C35.2115 11.4254 35.3552 10.5136 35.2344 9.57308C35.0402 8.06258 34.0981 7.09679 32.6618 6.72433C31.9666 6.54404 31.2592 6.50231 30.543 6.53102C29.4732 6.57351 28.4371 6.78903 27.4304 7.13775C25.7442 7.72189 24.22 8.61074 22.7875 9.66457C22.4309 9.92678 22.0804 10.197 21.7009 10.4837V10.287C21.7009 9.24809 21.6975 8.20919 21.7048 7.17067C21.7059 7.01641 21.6593 6.97774 21.5121 6.98234C21.175 6.99229 20.8368 6.99459 20.4997 6.98157C20.3334 6.97506 20.2868 7.01909 20.288 7.19058C20.2956 8.5671 20.2868 9.94363 20.2975 11.3202C20.2994 11.554 20.2356 11.7167 20.0678 11.8844C18.7493 13.2016 17.4315 14.5195 16.1129 15.8371H3.4512C3.39693 15.8371 3.34381 15.8536 3.29871 15.885L1.96791 16.8079C1.90638 16.8507 1.93657 16.9472 2.01148 16.9472H15.0011C10.0433 21.9021 5.08623 26.8593 0.128799 31.8161C0.0802606 31.8647 0.0561824 31.8953 0 31.9363V32.0002C0.508699 32.0002 1.0174 31.9895 1.52533 32.0052C1.73401 32.0117 1.87619 31.9481 2.02257 31.8011C6.04821 27.7531 10.0784 23.71 14.1068 19.665C14.1568 19.6149 14.1931 19.551 14.2356 19.4936C14.2524 19.5077 14.2692 19.5215 14.286 19.5357C14.0123 20.2389 13.8178 20.9589 13.7727 21.7153C13.7402 22.2631 13.7922 22.8013 13.989 23.3104C14.3965 24.3635 15.188 24.9901 16.2639 25.2753C17.2797 25.5448 18.3086 25.5007 19.3352 25.3694C20.5991 25.2083 21.8045 24.8266 22.9652 24.3122C25.1651 23.3368 27.1353 21.9959 28.9588 20.4391C30.1944 19.3841 31.3139 18.2173 32.3171 16.9464H35.1537C34.2801 17.495 33.5054 18.1687 32.8919 19.0487C32.2648 19.9487 31.8776 20.9221 31.9429 22.0433C32.0354 23.6319 32.9512 24.716 34.41 25.1914C35.7198 25.6182 37.0456 25.5482 38.3569 25.1742C39.8559 24.7466 41.1832 23.9719 42.4578 23.0964C42.5331 23.0447 42.6077 22.9911 42.712 22.918C42.6291 23.0757 42.5587 23.1948 42.5014 23.3203C42.1636 24.0607 42.4303 24.6559 43.2046 24.9047C43.4321 24.9778 43.6667 24.9989 43.901 25.0012C44.6463 25.0085 45.3916 25.002 46.1365 25.0073C46.253 25.0081 46.2909 24.9771 46.2882 24.858C46.2805 24.533 46.279 24.208 46.2886 23.883C46.2928 23.7433 46.2396 23.7139 46.112 23.7154C45.609 23.7215 45.1057 23.7188 44.6023 23.7173C44.4177 23.7165 44.2324 23.7196 44.0489 23.7031C43.8127 23.6821 43.7306 23.5083 43.8636 23.3135C43.9312 23.2147 44.0176 23.1274 44.1028 23.042C46.1338 21.0087 48.1655 18.976 50.1969 16.943L51.1887 15.9673C51.2112 15.9451 51.2154 15.9156 51.2074 15.8899C51.2097 15.8846 51.2131 15.8788 51.2196 15.8723H51.199C51.186 15.8513 51.1638 15.836 51.1352 15.836H49.8376L49.4684 15.8264C49.465 15.8302 49.4623 15.8329 49.4596 15.836H33.1442C33.4958 15.3345 33.823 14.8193 34.1111 14.2834H60.2527C60.2997 14.531 60.3486 14.7787 60.396 15.026C60.565 15.9049 60.8275 16.7631 60.9602 17.6519C61.1295 18.7858 61.0989 19.8986 60.7129 20.9861C60.3437 22.0261 59.7249 22.8901 58.7855 23.4781C57.3824 24.3562 55.8949 24.4251 54.3922 23.7705C53.5991 23.4248 53.0705 22.7906 52.7988 21.9614C52.4907 21.0213 52.5714 20.0926 52.9024 19.1735C53.0862 18.6625 53.3323 18.1836 53.6591 17.7002C53.1164 17.7002 52.6142 17.7017 52.112 17.6983C52.0367 17.6979 51.9992 17.7277 51.9641 17.789C51.2758 18.9833 50.8897 20.24 51.1164 21.6395C51.2983 22.7626 51.838 23.6656 52.722 24.368C53.4753 24.9664 54.3467 25.2726 55.2918 25.3966C56.0929 25.5019 56.8928 25.5072 57.6851 25.3446C59.3041 25.0123 60.5764 24.1399 61.4975 22.7798C62.4931 21.3103 62.7698 19.6696 62.5413 17.9279C62.4129 16.9499 62.2057 15.9872 61.9573 15.0336L61.9584 15.034ZM24.5219 9.94171C25.808 9.13823 27.1686 8.50509 28.6439 8.13455C29.0073 8.04344 29.375 7.97492 29.7465 7.92401C30.1195 7.8731 30.4952 7.87271 30.9229 7.84247C31.4767 7.85013 32.0767 7.89032 32.6347 8.16938C33.2279 8.46604 33.5615 8.95066 33.6628 9.59452C33.8268 10.6357 33.5856 11.6164 33.1851 12.5677C33.1056 12.756 33.0211 12.9413 32.9324 13.1239H20.3996C21.6543 11.9273 23.0333 10.8719 24.5219 9.94171ZM23.3516 22.6183C22.0919 23.3146 20.7519 23.8134 19.3233 24.0297C18.4989 24.1544 17.6669 24.2191 16.8368 24.0446C15.835 23.834 15.3026 23.2047 15.2361 22.1865C15.1735 21.2288 15.3982 20.33 15.759 19.458C16.1289 18.5634 16.6059 17.735 17.1452 16.9457H30.311C28.337 19.2497 26.0186 21.1442 23.3516 22.6183ZM39.7179 23.3066C38.8411 23.6989 37.9292 23.9703 36.976 24.0752C36.2709 24.1529 35.568 24.1261 34.8923 23.8528C33.9976 23.4911 33.4576 22.5896 33.5325 21.6361C33.6093 20.6595 34.058 19.8725 34.6894 19.1624C35.5879 18.1519 36.736 17.518 37.9629 17.0131C38.0187 16.9901 38.0749 16.9679 38.131 16.9461H48.3054C47.1615 18.0474 45.9866 19.115 44.7449 20.1079C43.1852 21.3551 41.5505 22.4866 39.7179 23.3066ZM31.2122 15.836H17.9585C18.0655 15.6985 18.1733 15.5619 18.2826 15.426C18.599 15.0329 18.9266 14.6524 19.2644 14.2834H32.2938C31.9632 14.8193 31.5978 15.3341 31.2122 15.836ZM61.5957 11.1647C61.7735 9.84755 62.4434 8.8519 63.6332 8.25857C64.8535 7.64993 66.1285 7.6572 67.3909 8.12421C68.1951 8.42164 68.7959 8.96482 69.0657 9.81118C69.279 10.4803 69.2446 11.1548 69.0768 11.8262C68.964 12.2771 68.8035 12.7093 68.604 13.1243H61.5877C61.5155 12.4777 61.5063 11.8258 61.5957 11.1647Z" fill="#111211"/>
<path d="M84.6622 9.85549C84.2846 8.13675 82.9538 7.05383 81.3265 6.68902C80.5009 6.50413 79.6647 6.48423 78.822 6.5673C77.568 6.69132 76.4699 7.15488 75.5768 8.05139C74.4458 9.18675 74.0384 10.6023 74.0759 12.1634C74.1 13.1647 74.3125 14.1451 74.5062 15.1239C74.6981 16.095 75.0035 17.0409 75.1047 18.0339C75.2274 19.2381 75.1089 20.398 74.5888 21.5001C74.095 22.5462 73.3302 23.3283 72.2735 23.8098C71.4437 24.188 70.5716 24.2485 69.6787 24.1268C68.8051 24.0074 68.0433 23.6762 67.4639 22.983C67.0344 22.4689 66.7798 21.879 66.7244 21.2164C66.6415 20.2273 66.8513 19.2933 67.3263 18.4213C67.4532 18.1881 67.5878 17.9588 67.7342 17.7005C67.2056 17.7005 66.7091 17.702 66.2123 17.6989C66.1381 17.6985 66.0999 17.728 66.0632 17.7893C65.3722 18.9411 64.9992 20.1729 65.1941 21.5238C65.4547 23.3313 66.5172 24.4966 68.1974 25.1156C69.2006 25.4853 70.249 25.5351 71.3042 25.4199C72.2165 25.3203 73.0581 25.0126 73.8282 24.5107C74.8884 23.8198 75.657 22.8842 76.1634 21.7282C76.6308 20.6606 76.7898 19.5379 76.6809 18.3876C76.5701 17.2158 76.3274 16.0644 76.0235 14.9267C75.6857 13.662 75.5061 12.3815 75.7033 11.0739C75.8959 9.79654 76.5659 8.83649 77.722 8.26039C78.9374 7.65443 80.2043 7.65902 81.4625 8.11531C82.6909 8.56088 83.3578 9.61663 83.3013 10.9227C83.2692 11.6673 83.0467 12.3578 82.7356 13.0269C82.5946 13.3301 82.4249 13.6187 82.2586 13.938C82.7952 13.938 83.3028 13.9365 83.8107 13.9391C83.9044 13.9395 83.9231 13.871 83.9552 13.8109C84.1257 13.4905 84.2789 13.1621 84.4024 12.8206C84.7513 11.8552 84.8828 10.8622 84.6615 9.85511L84.6622 9.85549Z" fill="#111211"/>
</g>
<defs>
<clipPath id="clip0_6542_100438">
<rect width="98" height="32" fill="white"/>
</clipPath>
</defs>
</svg>
